<svg xmlns="http://www.w3.org/2000/svg" viewBox="0 0 100 100" width="200" height="200">
  <rect width="100" height="100" rx="20" fill="#ffffff" stroke="#e2e8f0" stroke-width="2"/>
  
  <polygon points="50,15 80,32 80,68 50,85 20,68 20,32" fill="none" stroke="#94a3b8" stroke-width="2"/>
  <polygon points="50,35 65,45 65,60 50,70 35,60 35,45" fill="none" stroke="#3b82f6" stroke-width="3"/>
  
  <path d="M 50 15 L 50 35" stroke="#94a3b8" stroke-width="2"/>
  <path d="M 80 32 L 65 45" stroke="#94a3b8" stroke-width="2"/>
  <path d="M 80 68 L 65 60" stroke="#94a3b8" stroke-width="2"/>
  <path d="M 50 85 L 50 70" stroke="#94a3b8" stroke-width="2"/>
  <path d="M 20 68 L 35 60" stroke="#94a3b8" stroke-width="2"/>
  <path d="M 20 32 L 35 45" stroke="#94a3b8" stroke-width="2"/>

  <circle cx="50" cy="52.5" r="7" fill="#1e293b"/>
  
  <circle cx="50" cy="15" r="3" fill="#3b82f6"/>
  <circle cx="80" cy="32" r="3" fill="#3b82f6"/>
  <circle cx="80" cy="68" r="3" fill="#3b82f6"/>
  <circle cx="50" cy="85" r="3" fill="#3b82f6"/>
  <circle cx="20" cy="68" r="3" fill="#3b82f6"/>
  <circle cx="20" cy="32" r="3" fill="#3b82f6"/>
</svg>
